<svg id="Capa_1" enable-background="new 0 0 511.972 511.972" viewBox="0 0 511.972 511.972" xmlns="http://www.w3.org/2000/svg"><g><g><path d="m385.314 94.406h53.624v115.421h-53.624z" fill="#fff9df"/><path d="m412.126 94.402h26.81v115.43h-26.81z" fill="#fff3be"/><path d="m438.938 483.443h-365.905v-233.54l182.953-182.952 182.952 182.952z" fill="#fff9df"/><path d="m438.936 249.902v233.54h-26.81v-260.35z" fill="#fff3be"/><path d=""/><path d=""/><path d="m478.11 504.472h-444.249c-6.536 0-11.834-5.298-11.834-11.834v-18.389c0-6.536 5.298-11.834 11.834-11.834h444.249c6.536 0 11.834 5.298 11.834 11.834v18.389c.001 6.535-5.298 11.834-11.834 11.834z" fill="#d9e7ec"/><path d="m489.946 474.252v18.39c0 6.53-5.3 11.83-11.84 11.83h-26c6.54 0 11.84-5.3 11.84-11.83v-18.39c0-6.54-5.3-11.84-11.84-11.84h26c6.54 0 11.84 5.3 11.84 11.84z" fill="#c5d3dd"/><path d="m492.405 243.89-29.746 29.735-206.673-206.683-206.674 206.683-29.745-29.735 236.419-236.418z" fill="#eb5569"/><path d="m.011 154.598h292.279v18.381h-292.279z" fill="#e53950" transform="matrix(.707 -.707 .707 .707 -73.01 151.317)"/><path d="m492.406 243.892-29.75 29.73-12.99-12.99 29.74-29.74z" fill="#e53950"/><path d="m268.486 462.412h-25v-124.883c0-6.904 5.596-12.5 12.5-12.5 6.904 0 12.5 5.596 12.5 12.5z" fill="#02905d"/><path d="m243.486 391.182v-53.653c0-40.979-33.22-74.199-74.199-74.199h-53.653v53.653c0 40.979 33.22 74.199 74.199 74.199z" fill="#80d261"/><path d="m243.486 337.532v53.65h-25.48v-53.65c0-40.98-33.22-74.2-74.2-74.2h25.48c40.98 0 74.2 33.22 74.2 74.2z" fill="#68ca44"/><path d="m268.486 391.182v-53.653c0-40.979 33.22-74.199 74.199-74.199h53.653v53.653c0 40.979-33.22 74.199-74.199 74.199z" fill="#80d261"/><path d="m396.336 263.332v53.65c0 40.98-33.22 74.2-74.2 74.2h-25c40.98 0 74.2-33.22 74.2-74.2v-53.65z" fill="#68ca44"/><path d="m218.892 155.396h74.188v74.188h-74.188z" fill="#8ac9fe"/><path d="m267.836 155.392h25.24v74.19h-25.24z" fill="#60b7ff"/></g><g><path d="m438.938 435.138c4.142 0 7.5-3.357 7.5-7.5v-159.627l10.917 10.918c2.893 2.894 7.712 2.894 10.605.002l29.746-29.735c2.892-2.892 2.892-7.716.001-10.608l-27.835-27.835c-2.929-2.928-7.678-2.929-10.606.001-2.929 2.929-2.929 7.677 0 10.606l22.531 22.53-19.137 19.13-201.371-201.381c-2.89-2.892-7.717-2.892-10.606 0l-201.371 201.381-19.138-19.13 225.812-225.812 177.648 177.649c4.61 4.61 12.804 1.244 12.804-5.303v-96.02c0-4.143-3.358-7.5-7.5-7.5h-53.624c-4.142 0-7.5 3.357-7.5 7.5v24.288l-116.525-116.524c-2.891-2.891-7.716-2.891-10.606 0l-236.419 236.419c-2.891 2.892-2.891 7.717.001 10.608l29.746 29.735c2.93 2.928 7.678 2.928 10.605-.002l10.917-10.918v186.903h-31.672c-10.661 0-19.334 8.673-19.334 19.334v18.39c0 10.661 8.673 19.334 19.334 19.334h444.25c10.661 0 19.334-8.673 19.334-19.334v-18.39c0-10.661-8.673-19.334-19.334-19.334h-202.125v-56.231h46.153c44.447 0 81.699-37.246 81.699-81.699v-53.651c.001-4.084-3.416-7.503-7.5-7.503h-53.653c-37.437 0-70.98 26.601-79.527 63.052-4.61-1.78-9.735-1.78-14.345 0-8.547-36.451-42.088-63.052-79.527-63.052h-53.653c-4.084 0-7.501 3.418-7.5 7.503v53.651c0 44.453 37.251 81.699 81.699 81.699h46.153v56.231h-95.665c-4.142 0-7.5 3.357-7.5 7.5s3.358 7.5 7.5 7.5h337.79c2.39 0 4.334 1.944 4.334 4.334v18.39c0 2.39-1.944 4.334-4.334 4.334h-444.249c-2.39 0-4.334-1.944-4.334-4.334v-18.39c0-2.39 1.944-4.334 4.334-4.334h72.458c4.142 0 7.5-3.357 7.5-7.5s-3.358-7.5-7.5-7.5h-25.786v-201.903l175.453-175.461 175.452 175.461v174.628c0 4.142 3.358 7.5 7.5 7.5zm-46.124-333.233h38.624v70.413l-38.624-38.624zm-70.675 281.778h-35.546l20.161-20.161h63.102c-12.122 12.425-29.029 20.161-47.717 20.161zm66.699-75.96h-26.286l26.286-26.286zm-7.945 40.798h-59.139l25.799-25.799h41.022c-.794 9.265-3.477 17.998-7.682 25.799zm-28.948-51.405v-26.286h26.286zm-15 15-25.799 25.799v-59.14c7.802-4.205 16.534-6.888 25.799-7.682zm-40.799-22.303v63.102l-20.161 20.161v-35.546c.001-18.689 7.736-35.596 20.161-47.717zm-40.16 42.716c2.757 0 5 2.243 5 5v117.383h-10v-117.383c0-2.757 2.243-5 5-5zm-20 5v35.546l-20.161-20.161v-63.102c12.425 12.122 20.161 29.029 20.161 47.717zm-75.96-40.413-26.286-26.286h26.286zm-10.607 10.607h-26.286v-26.286zm-26.022 15h41.022l25.799 25.799h-59.139c-4.205-7.802-6.888-16.535-7.682-25.799zm51.629-10.607v-41.022c9.265.794 17.997 3.477 25.799 7.682v59.14zm-32.91 51.405h63.102l20.161 20.161h-35.546c-18.688.001-35.596-7.735-47.717-20.161z"/><path d="m218.892 147.895c-4.142 0-7.5 3.357-7.5 7.5v74.188c0 4.143 3.358 7.5 7.5 7.5h74.188c4.142 0 7.5-3.357 7.5-7.5v-74.188c0-4.143-3.358-7.5-7.5-7.5zm66.689 37.095h-22.095v-22.095h22.095zm-37.095-22.095v22.095h-22.094v-22.095zm-22.094 37.095h22.094v22.094h-22.094zm37.094 22.094v-22.094h22.095v22.094z"/></g></g></svg>